<?xml version="1.0" encoding="us-ascii" standalone="no"?><svg xmlns="http://www.w3.org/2000/svg" xmlns:xlink="http://www.w3.org/1999/xlink" contentStyleType="text/css" height="807px" preserveAspectRatio="none" style="width:1577px;height:807px;background:#FFFFFF;" version="1.1" viewBox="0 0 1577 807" width="1577px" zoomAndPan="magnify"><defs/><g><rect fill="#FFFFFF" height="93.4063" style="stroke:#181818;stroke-width:1.0;" width="10" x="1293.5" y="641.6016"/><rect fill="none" height="142.1094" style="stroke:#000000;stroke-width:1.5;" width="516" x="184" y="192.625"/><rect fill="none" height="109.4063" style="stroke:#000000;stroke-width:1.5;" width="516" x="184" y="379.0859"/><line style="stroke:#181818;stroke-width:0.5;stroke-dasharray:5.0,5.0;" x1="66" x2="66" y1="55.2188" y2="753.0078"/><line style="stroke:#181818;stroke-width:0.5;stroke-dasharray:5.0,5.0;" x1="255" x2="255" y1="55.2188" y2="753.0078"/><line style="stroke:#181818;stroke-width:0.5;stroke-dasharray:5.0,5.0;" x1="562" x2="562" y1="55.2188" y2="753.0078"/><line style="stroke:#181818;stroke-width:0.5;stroke-dasharray:5.0,5.0;" x1="657" x2="657" y1="55.2188" y2="753.0078"/><line style="stroke:#181818;stroke-width:0.5;stroke-dasharray:5.0,5.0;" x1="756" x2="756" y1="55.2188" y2="753.0078"/><line style="stroke:#181818;stroke-width:0.5;stroke-dasharray:5.0,5.0;" x1="965" x2="965" y1="55.2188" y2="753.0078"/><line style="stroke:#181818;stroke-width:0.5;stroke-dasharray:5.0,5.0;" x1="1048" x2="1048" y1="55.2188" y2="753.0078"/><line style="stroke:#181818;stroke-width:0.5;stroke-dasharray:5.0,5.0;" x1="1130" x2="1130" y1="55.2188" y2="753.0078"/><line style="stroke:#181818;stroke-width:0.5;stroke-dasharray:5.0,5.0;" x1="1298.5" x2="1298.5" y1="55.2188" y2="753.0078"/><line style="stroke:#181818;stroke-width:0.5;stroke-dasharray:5.0,5.0;" x1="1538.5" x2="1538.5" y1="55.2188" y2="753.0078"/><rect fill="#E2E2F0" height="49.2188" rx="2.5" ry="2.5" style="stroke:#181818;stroke-width:0.5;" width="122" x="5" y="5"/><text fill="#000000" font-family="sans-serif" font-size="14" lengthAdjust="spacing" textLength="104" x="12" y="26.5332">phiMail Receiver</text><text fill="#000000" font-family="sans-serif" font-size="14" lengthAdjust="spacing" textLength="36" x="50" y="44.1426">Client</text><rect fill="#E2E2F0" height="49.2188" rx="2.5" ry="2.5" style="stroke:#181818;stroke-width:0.5;" width="122" x="5" y="752.0078"/><text fill="#000000" font-family="sans-serif" font-size="14" lengthAdjust="spacing" textLength="104" x="12" y="773.541">phiMail Receiver</text><text fill="#000000" font-family="sans-serif" font-size="14" lengthAdjust="spacing" textLength="36" x="50" y="791.1504">Client</text><rect fill="#E2E2F0" height="49.2188" rx="2.5" ry="2.5" style="stroke:#181818;stroke-width:0.5;" width="122" x="194" y="5"/><text fill="#000000" font-family="sans-serif" font-size="14" lengthAdjust="spacing" textLength="104" x="201" y="26.5332">phiMail Receiver</text><text fill="#000000" font-family="sans-serif" font-size="14" lengthAdjust="spacing" textLength="46" x="234" y="44.1426">Module</text><rect fill="#E2E2F0" height="49.2188" rx="2.5" ry="2.5" style="stroke:#181818;stroke-width:0.5;" width="122" x="194" y="752.0078"/><text fill="#000000" font-family="sans-serif" font-size="14" lengthAdjust="spacing" textLength="104" x="201" y="773.541">phiMail Receiver</text><text fill="#000000" font-family="sans-serif" font-size="14" lengthAdjust="spacing" textLength="46" x="234" y="791.1504">Module</text><rect fill="#E2E2F0" height="31.6094" rx="2.5" ry="2.5" style="stroke:#181818;stroke-width:0.5;" width="104" x="510" y="22.6094"/><text fill="#000000" font-family="sans-serif" font-size="14" lengthAdjust="spacing" textLength="90" x="517" y="44.1426">phiMail Server</text><rect fill="#E2E2F0" height="31.6094" rx="2.5" ry="2.5" style="stroke:#181818;stroke-width:0.5;" width="104" x="510" y="752.0078"/><text fill="#000000" font-family="sans-serif" font-size="14" lengthAdjust="spacing" textLength="90" x="517" y="773.541">phiMail Server</text><rect fill="#E2E2F0" height="49.2188" rx="2.5" ry="2.5" style="stroke:#181818;stroke-width:0.5;" width="66" x="624" y="5"/><text fill="#000000" font-family="sans-serif" font-size="14" font-style="italic" lengthAdjust="spacing" textLength="52" x="631" y="26.5332">&#171;folder&#187;</text><text fill="#000000" font-family="sans-serif" font-size="14" lengthAdjust="spacing" textLength="51" x="631.5" y="44.1426">Inbound</text><rect fill="#E2E2F0" height="49.2188" rx="2.5" ry="2.5" style="stroke:#181818;stroke-width:0.5;" width="66" x="624" y="752.0078"/><text fill="#000000" font-family="sans-serif" font-size="14" font-style="italic" lengthAdjust="spacing" textLength="52" x="631" y="773.541">&#171;folder&#187;</text><text fill="#000000" font-family="sans-serif" font-size="14" lengthAdjust="spacing" textLength="51" x="631.5" y="791.1504">Inbound</text><text fill="#000000" font-family="sans-serif" font-size="14" lengthAdjust="spacing" textLength="46" x="730" y="52.1426">surveilr</text><ellipse cx="756" cy="21.6094" fill="#E2E2F0" rx="12" ry="12" style="stroke:#181818;stroke-width:0.5;"/><polygon fill="#181818" points="752,9.6094,758,4.6094,756,9.6094,758,14.6094,752,9.6094" style="stroke:#181818;stroke-width:1.0;"/><text fill="#000000" font-family="sans-serif" font-size="14" lengthAdjust="spacing" textLength="46" x="730" y="766.541">surveilr</text><ellipse cx="756" cy="785.6172" fill="#E2E2F0" rx="12" ry="12" style="stroke:#181818;stroke-width:0.5;"/><polygon fill="#181818" points="752,773.6172,758,768.6172,756,773.6172,758,778.6172,752,773.6172" style="stroke:#181818;stroke-width:1.0;"/><rect fill="#E2E2F0" height="49.2188" rx="2.5" ry="2.5" style="stroke:#181818;stroke-width:0.5;" width="66" x="932" y="5"/><text fill="#000000" font-family="sans-serif" font-size="14" font-style="italic" lengthAdjust="spacing" textLength="52" x="939" y="26.5332">&#171;folder&#187;</text><text fill="#000000" font-family="sans-serif" font-size="14" lengthAdjust="spacing" textLength="51" x="939.5" y="44.1426">Inbound</text><rect fill="#E2E2F0" height="49.2188" rx="2.5" ry="2.5" style="stroke:#181818;stroke-width:0.5;" width="66" x="932" y="752.0078"/><text fill="#000000" font-family="sans-serif" font-size="14" font-style="italic" lengthAdjust="spacing" textLength="52" x="939" y="773.541">&#171;folder&#187;</text><text fill="#000000" font-family="sans-serif" font-size="14" lengthAdjust="spacing" textLength="51" x="939.5" y="791.1504">Inbound</text><rect fill="#E2E2F0" height="49.2188" rx="2.5" ry="2.5" style="stroke:#181818;stroke-width:0.5;" width="81" x="1008" y="5"/><text fill="#000000" font-family="sans-serif" font-size="14" font-style="italic" lengthAdjust="spacing" textLength="52" x="1022.5" y="26.5332">&#171;folder&#187;</text><text fill="#000000" font-family="sans-serif" font-size="14" lengthAdjust="spacing" textLength="67" x="1015" y="44.1426">Processed</text><rect fill="#E2E2F0" height="49.2188" rx="2.5" ry="2.5" style="stroke:#181818;stroke-width:0.5;" width="81" x="1008" y="752.0078"/><text fill="#000000" font-family="sans-serif" font-size="14" font-style="italic" lengthAdjust="spacing" textLength="52" x="1022.5" y="773.541">&#171;folder&#187;</text><text fill="#000000" font-family="sans-serif" font-size="14" lengthAdjust="spacing" textLength="67" x="1015" y="791.1504">Processed</text><text fill="#000000" font-family="sans-serif" font-size="14" lengthAdjust="spacing" textLength="57" x="1099" y="52.1426">Cron Job</text><ellipse cx="1130.5" cy="21.6094" fill="#E2E2F0" rx="12" ry="12" style="stroke:#181818;stroke-width:0.5;"/><polygon fill="#181818" points="1126.5,9.6094,1132.5,4.6094,1130.5,9.6094,1132.5,14.6094,1126.5,9.6094" style="stroke:#181818;stroke-width:1.0;"/><text fill="#000000" font-family="sans-serif" font-size="14" lengthAdjust="spacing" textLength="57" x="1099" y="766.541">Cron Job</text><ellipse cx="1130.5" cy="785.6172" fill="#E2E2F0" rx="12" ry="12" style="stroke:#181818;stroke-width:0.5;"/><polygon fill="#181818" points="1126.5,773.6172,1132.5,768.6172,1130.5,773.6172,1132.5,778.6172,1126.5,773.6172" style="stroke:#181818;stroke-width:1.0;"/><text fill="#000000" font-family="sans-serif" font-size="14" lengthAdjust="spacing" textLength="102" x="1244.5" y="52.1426">Backup Process</text><ellipse cx="1298.5" cy="21.6094" fill="#E2E2F0" rx="12" ry="12" style="stroke:#181818;stroke-width:0.5;"/><polygon fill="#181818" points="1294.5,9.6094,1300.5,4.6094,1298.5,9.6094,1300.5,14.6094,1294.5,9.6094" style="stroke:#181818;stroke-width:1.0;"/><text fill="#000000" font-family="sans-serif" font-size="14" lengthAdjust="spacing" textLength="102" x="1244.5" y="766.541">Backup Process</text><ellipse cx="1298.5" cy="785.6172" fill="#E2E2F0" rx="12" ry="12" style="stroke:#181818;stroke-width:0.5;"/><polygon fill="#181818" points="1294.5,773.6172,1300.5,768.6172,1298.5,773.6172,1300.5,778.6172,1294.5,773.6172" style="stroke:#181818;stroke-width:1.0;"/><rect fill="#E2E2F0" height="49.2188" rx="2.5" ry="2.5" style="stroke:#181818;stroke-width:0.5;" width="66" x="1505.5" y="5"/><text fill="#000000" font-family="sans-serif" font-size="14" font-style="italic" lengthAdjust="spacing" textLength="52" x="1512.5" y="26.5332">&#171;folder&#187;</text><text fill="#000000" font-family="sans-serif" font-size="14" lengthAdjust="spacing" textLength="47" x="1515" y="44.1426">Archive</text><rect fill="#E2E2F0" height="49.2188" rx="2.5" ry="2.5" style="stroke:#181818;stroke-width:0.5;" width="66" x="1505.5" y="752.0078"/><text fill="#000000" font-family="sans-serif" font-size="14" font-style="italic" lengthAdjust="spacing" textLength="52" x="1512.5" y="773.541">&#171;folder&#187;</text><text fill="#000000" font-family="sans-serif" font-size="14" lengthAdjust="spacing" textLength="47" x="1515" y="791.1504">Archive</text><rect fill="#FFFFFF" height="93.4063" style="stroke:#181818;stroke-width:1.0;" width="10" x="1293.5" y="641.6016"/><line style="stroke:#181818;stroke-width:1.0;" x1="66" x2="108" y1="103.9219" y2="103.9219"/><line style="stroke:#181818;stroke-width:1.0;" x1="108" x2="108" y1="103.9219" y2="116.9219"/><line style="stroke:#181818;stroke-width:1.0;" x1="67" x2="108" y1="116.9219" y2="116.9219"/><polygon fill="#181818" points="77,112.9219,67,116.9219,77,120.9219,73,116.9219" style="stroke:#181818;stroke-width:1.0;"/><text fill="#000000" font-family="sans-serif" font-size="13" font-weight="bold" lengthAdjust="spacing" textLength="7" x="73" y="90.8896">1</text><text fill="#000000" font-family="sans-serif" font-size="13" lengthAdjust="spacing" textLength="144" x="84" y="82.7139">Run the phiMail receiving</text><text fill="#000000" font-family="sans-serif" font-size="13" lengthAdjust="spacing" textLength="164" x="84" y="99.0654">application at regular interval</text><polygon fill="#181818" points="550,143.2734,560,147.2734,550,151.2734,554,147.2734" style="stroke:#181818;stroke-width:1.0;"/><line style="stroke:#181818;stroke-width:1.0;" x1="255" x2="556" y1="147.2734" y2="147.2734"/><text fill="#000000" font-family="sans-serif" font-size="13" font-weight="bold" lengthAdjust="spacing" textLength="7" x="262" y="142.417">2</text><text fill="#000000" font-family="sans-serif" font-size="13" lengthAdjust="spacing" textLength="168" x="273" y="142.417">Connect to the phiMail server</text><polygon fill="#181818" points="550,173.625,560,177.625,550,181.625,554,177.625" style="stroke:#181818;stroke-width:1.0;"/><line style="stroke:#181818;stroke-width:1.0;" x1="255" x2="556" y1="177.625" y2="177.625"/><text fill="#000000" font-family="sans-serif" font-size="13" font-weight="bold" lengthAdjust="spacing" textLength="7" x="262" y="172.7686">3</text><text fill="#000000" font-family="sans-serif" font-size="13" lengthAdjust="spacing" textLength="162" x="273" y="172.7686">Check for unread messages</text><path d="M184,192.625 L245,192.625 L245,200.9766 L235,210.9766 L184,210.9766 L184,192.625 " fill="#EEEEEE" style="stroke:#000000;stroke-width:1.5;"/><rect fill="none" height="142.1094" style="stroke:#000000;stroke-width:1.5;" width="516" x="184" y="192.625"/><text fill="#000000" font-family="sans-serif" font-size="13" font-weight="bold" lengthAdjust="spacing" textLength="16" x="199" y="207.1201">alt</text><text fill="#000000" font-family="sans-serif" font-size="11" font-weight="bold" lengthAdjust="spacing" textLength="139" x="260" y="206.0439">[Unread messages exist]</text><polygon fill="#181818" points="266,229.3281,256,233.3281,266,237.3281,262,233.3281" style="stroke:#181818;stroke-width:1.0;"/><line style="stroke:#181818;stroke-width:1.0;" x1="260" x2="561" y1="233.3281" y2="233.3281"/><text fill="#000000" font-family="sans-serif" font-size="13" font-weight="bold" lengthAdjust="spacing" textLength="7" x="272" y="228.4717">4</text><text fill="#000000" font-family="sans-serif" font-size="13" lengthAdjust="spacing" textLength="240" x="283" y="228.4717">Return content, subject, and attachments</text><polygon fill="#181818" points="645,292.3828,655,296.3828,645,300.3828,649,296.3828" style="stroke:#181818;stroke-width:1.0;"/><line style="stroke:#181818;stroke-width:1.0;" x1="255" x2="651" y1="296.3828" y2="296.3828"/><text fill="#000000" font-family="sans-serif" font-size="13" font-weight="bold" lengthAdjust="spacing" textLength="7" x="262" y="275.1748">5</text><text fill="#000000" font-family="sans-serif" font-size="13" lengthAdjust="spacing" textLength="217" x="273" y="258.8232">Convert subject and content as JSON</text><text fill="#000000" font-family="sans-serif" font-size="13" lengthAdjust="spacing" textLength="210" x="277" y="275.1748">and download and save attachments</text><text fill="#000000" font-family="sans-serif" font-size="13" lengthAdjust="spacing" textLength="94" x="277" y="291.5264">in Inbound folder</text><polygon fill="#181818" points="550,322.7344,560,326.7344,550,330.7344,554,326.7344" style="stroke:#181818;stroke-width:1.0;"/><line style="stroke:#181818;stroke-width:1.0;" x1="255" x2="556" y1="326.7344" y2="326.7344"/><text fill="#000000" font-family="sans-serif" font-size="13" font-weight="bold" lengthAdjust="spacing" textLength="7" x="262" y="321.8779">6</text><text fill="#000000" font-family="sans-serif" font-size="13" lengthAdjust="spacing" textLength="258" x="273" y="321.8779">Send acknowledgement to the phiMail server</text><polygon fill="#181818" points="550,360.0859,560,364.0859,550,368.0859,554,364.0859" style="stroke:#181818;stroke-width:1.0;"/><line style="stroke:#181818;stroke-width:1.0;" x1="255" x2="556" y1="364.0859" y2="364.0859"/><text fill="#000000" font-family="sans-serif" font-size="13" font-weight="bold" lengthAdjust="spacing" textLength="7" x="262" y="359.2295">7</text><text fill="#000000" font-family="sans-serif" font-size="13" lengthAdjust="spacing" textLength="184" x="273" y="359.2295">Check for delivery status details</text><path d="M184,379.0859 L245,379.0859 L245,387.4375 L235,397.4375 L184,397.4375 L184,379.0859 " fill="#EEEEEE" style="stroke:#000000;stroke-width:1.5;"/><rect fill="none" height="109.4063" style="stroke:#000000;stroke-width:1.5;" width="516" x="184" y="379.0859"/><text fill="#000000" font-family="sans-serif" font-size="13" font-weight="bold" lengthAdjust="spacing" textLength="16" x="199" y="393.5811">alt</text><text fill="#000000" font-family="sans-serif" font-size="11" font-weight="bold" lengthAdjust="spacing" textLength="160" x="260" y="392.5049">[Delivery status details exist]</text><polygon fill="#181818" points="266,415.7891,256,419.7891,266,423.7891,262,419.7891" style="stroke:#181818;stroke-width:1.0;"/><line style="stroke:#181818;stroke-width:1.0;" x1="260" x2="561" y1="419.7891" y2="419.7891"/><text fill="#000000" font-family="sans-serif" font-size="13" font-weight="bold" lengthAdjust="spacing" textLength="7" x="272" y="414.9326">8</text><text fill="#000000" font-family="sans-serif" font-size="13" lengthAdjust="spacing" textLength="125" x="283" y="414.9326">Return delivery status</text><polygon fill="#181818" points="266,446.1406,256,450.1406,266,454.1406,262,450.1406" style="stroke:#181818;stroke-width:1.0;"/><line style="stroke:#181818;stroke-width:1.0;" x1="260" x2="561" y1="450.1406" y2="450.1406"/><text fill="#000000" font-family="sans-serif" font-size="13" font-weight="bold" lengthAdjust="spacing" textLength="7" x="272" y="445.2842">9</text><text fill="#000000" font-family="sans-serif" font-size="13" lengthAdjust="spacing" textLength="272" x="283" y="445.2842">Convert the delivery status into JSON message</text><polygon fill="#181818" points="645,476.4922,655,480.4922,645,484.4922,649,480.4922" style="stroke:#181818;stroke-width:1.0;"/><line style="stroke:#181818;stroke-width:1.0;" x1="255" x2="651" y1="480.4922" y2="480.4922"/><text fill="#000000" font-family="sans-serif" font-size="13" font-weight="bold" lengthAdjust="spacing" textLength="14" x="262" y="475.6357">10</text><text fill="#000000" font-family="sans-serif" font-size="13" lengthAdjust="spacing" textLength="273" x="280" y="475.6357">Store delivery status message in Inbound folder</text><polygon fill="#181818" points="668,513.8438,658,517.8438,668,521.8438,664,517.8438" style="stroke:#181818;stroke-width:1.0;"/><line style="stroke:#181818;stroke-width:1.0;" x1="662" x2="755" y1="517.8438" y2="517.8438"/><text fill="#000000" font-family="sans-serif" font-size="13" font-weight="bold" lengthAdjust="spacing" textLength="14" x="674" y="512.9873">11</text><text fill="#000000" font-family="sans-serif" font-size="13" lengthAdjust="spacing" textLength="57" x="692" y="512.9873">Read files</text><polygon fill="#181818" points="953,544.1953,963,548.1953,953,552.1953,957,548.1953" style="stroke:#181818;stroke-width:1.0;"/><line style="stroke:#181818;stroke-width:1.0;" x1="756" x2="959" y1="548.1953" y2="548.1953"/><text fill="#000000" font-family="sans-serif" font-size="13" font-weight="bold" lengthAdjust="spacing" textLength="14" x="763" y="543.3389">12</text><text fill="#000000" font-family="sans-serif" font-size="13" lengthAdjust="spacing" textLength="167" x="781" y="543.3389">Ingest files and create RSSD</text><polygon fill="#181818" points="1036.5,590.8984,1046.5,594.8984,1036.5,598.8984,1040.5,594.8984" style="stroke:#181818;stroke-width:1.0;"/><line style="stroke:#181818;stroke-width:1.0;" x1="756" x2="1042.5" y1="594.8984" y2="594.8984"/><text fill="#000000" font-family="sans-serif" font-size="13" font-weight="bold" lengthAdjust="spacing" textLength="14" x="763" y="581.8662">13</text><text fill="#000000" font-family="sans-serif" font-size="13" lengthAdjust="spacing" textLength="185" x="781" y="573.6904">Move files from Inbound folder to</text><text fill="#000000" font-family="sans-serif" font-size="13" lengthAdjust="spacing" textLength="191" x="781" y="590.042">Processed folder for later archival</text><polygon fill="#181818" points="1281.5,637.6016,1291.5,641.6016,1281.5,645.6016,1285.5,641.6016" style="stroke:#181818;stroke-width:1.0;"/><line style="stroke:#181818;stroke-width:1.0;" x1="1130.5" x2="1287.5" y1="641.6016" y2="641.6016"/><text fill="#000000" font-family="sans-serif" font-size="13" font-weight="bold" lengthAdjust="spacing" textLength="14" x="1137.5" y="628.5693">14</text><text fill="#000000" font-family="sans-serif" font-size="13" lengthAdjust="spacing" textLength="106" x="1155.5" y="620.3936">Trigger backup job</text><text fill="#000000" font-family="sans-serif" font-size="13" lengthAdjust="spacing" textLength="118" x="1163.5" y="636.7451">at scheduled interval</text><polygon fill="#181818" points="1059.5,684.3047,1049.5,688.3047,1059.5,692.3047,1055.5,688.3047" style="stroke:#181818;stroke-width:1.0;"/><line style="stroke:#181818;stroke-width:1.0;" x1="1053.5" x2="1292.5" y1="688.3047" y2="688.3047"/><text fill="#000000" font-family="sans-serif" font-size="13" font-weight="bold" lengthAdjust="spacing" textLength="14" x="1065.5" y="675.2725">15</text><text fill="#000000" font-family="sans-serif" font-size="13" lengthAdjust="spacing" textLength="86" x="1083.5" y="667.0967">Read files from</text><text fill="#000000" font-family="sans-serif" font-size="13" lengthAdjust="spacing" textLength="119" x="1087.5" y="683.4482">the Processed folder</text><polygon fill="#181818" points="1526.5,731.0078,1536.5,735.0078,1526.5,739.0078,1530.5,735.0078" style="stroke:#181818;stroke-width:1.0;"/><line style="stroke:#181818;stroke-width:1.0;" x1="1298.5" x2="1532.5" y1="735.0078" y2="735.0078"/><text fill="#000000" font-family="sans-serif" font-size="13" font-weight="bold" lengthAdjust="spacing" textLength="14" x="1305.5" y="721.9756">16</text><text fill="#000000" font-family="sans-serif" font-size="13" lengthAdjust="spacing" textLength="86" x="1323.5" y="713.7998">Move files from</text><text fill="#000000" font-family="sans-serif" font-size="13" lengthAdjust="spacing" textLength="193" x="1323.5" y="730.1514">Processed folder to Archive folder</text><!--SRC=[ZLHDRzim3BtxLn0vTtyWA0AqphgcpHVaRQTSP9cnrIYI8Sdjzkz7oNOJkrwt709OV7nwV2J56szqSyxH9ZMtNWfPS-rXLbTomwK2XWBbAreuQ4YLHErdm1smVwCtfcWKHlJ-SPKjdwTJChIKqCCssH2rqhbfT173g-t3Rhtyok3szcXKWNQnI8JHtXe5CzSGZLGjKSP-hjbdHDyUrii1pm2xjqQWSzYYzsFi-vsfDHgUJ1vXATjjBw5xBavD3HrJ1Dodp_lXFNTMLEHMZDwnz75qJyBWomBO75YZmLS8lMKskYnrIJRpkbPIS2z92lSKAXl5BKZjoLUkajRwG1JTdKDgj4RXmPi1fujjW0byXU84HsEXqHPv0MSgY9VeaeGh3p-6Xu2_fFC9q2_cTqH4IMMWRwo6u16DqGsu9dyX9JV0TK7QFHVLcGAkp-vqz6sFqacZxnDZNiSMB7pATjimUE6uC6zQ6H8MFXn_nUiB0aXgw4O2MiD7jtRLPnYqYPCsRmgB4aF-j7K98PFFx2jGXTNu3SvptpZwzfJTsRYS3lw7dIFQQMplN90zra6ZObhlkYR-rV_C6_inlykQS3Gw4dTnoCF2n1obeXcwYiQTd1C7ZP5lmss7QS0y0ikovGM-Ry4RGvrjeKThpYC1eL47_RxD_MbeXY9A2pmk86r9MDv06tPq3j-jB4iAv-qIlvWyJ4nOBoSg3AzQSLamBZnHaC2ut-7lIj-bqbRVeLtaiQJtjEuL-5ZOH1bKNFU0z2m53iJy0G00]--></g></svg>