<?xml version="1.0" encoding="us-ascii" standalone="no"?><svg xmlns="http://www.w3.org/2000/svg" xmlns:xlink="http://www.w3.org/1999/xlink" contentStyleType="text/css" height="473px" preserveAspectRatio="none" style="width:1041px;height:473px;background:#FFFFFF;" version="1.1" viewBox="0 0 1041 473" width="1041px" zoomAndPan="magnify"><defs/><g><line style="stroke:#181818;stroke-width:0.5;stroke-dasharray:5.0,5.0;" x1="26" x2="26" y1="68.6094" y2="393.4766"/><line style="stroke:#181818;stroke-width:0.5;stroke-dasharray:5.0,5.0;" x1="224.5" x2="224.5" y1="68.6094" y2="393.4766"/><line style="stroke:#181818;stroke-width:0.5;stroke-dasharray:5.0,5.0;" x1="538.5" x2="538.5" y1="68.6094" y2="393.4766"/><line style="stroke:#181818;stroke-width:0.5;stroke-dasharray:5.0,5.0;" x1="860.5" x2="860.5" y1="68.6094" y2="393.4766"/><line style="stroke:#181818;stroke-width:0.5;stroke-dasharray:5.0,5.0;" x1="1006" x2="1006" y1="68.6094" y2="393.4766"/><rect fill="#E2E2F0" height="31.6094" rx="2.5" ry="2.5" style="stroke:#181818;stroke-width:0.5;" width="43" x="5" y="36"/><text fill="#000000" font-family="sans-serif" font-size="14" lengthAdjust="spacing" textLength="29" x="12" y="57.5332">User</text><rect fill="#E2E2F0" height="31.6094" rx="2.5" ry="2.5" style="stroke:#181818;stroke-width:0.5;" width="43" x="5" y="392.4766"/><text fill="#000000" font-family="sans-serif" font-size="14" lengthAdjust="spacing" textLength="29" x="12" y="414.0098">User</text><rect fill="#E2E2F0" height="31.6094" rx="2.5" ry="2.5" style="stroke:#181818;stroke-width:0.5;" width="100" x="174.5" y="36"/><text fill="#000000" font-family="sans-serif" font-size="14" lengthAdjust="spacing" textLength="86" x="181.5" y="57.5332">Sender Client</text><rect fill="#E2E2F0" height="31.6094" rx="2.5" ry="2.5" style="stroke:#181818;stroke-width:0.5;" width="100" x="174.5" y="392.4766"/><text fill="#000000" font-family="sans-serif" font-size="14" lengthAdjust="spacing" textLength="86" x="181.5" y="414.0098">Sender Client</text><rect fill="#E2E2F0" height="49.2188" rx="2.5" ry="2.5" style="stroke:#181818;stroke-width:0.5;" width="112" x="482.5" y="18.3906"/><text fill="#000000" font-family="sans-serif" font-size="14" lengthAdjust="spacing" textLength="94" x="489.5" y="39.9238">phiMail Sender</text><text fill="#000000" font-family="sans-serif" font-size="14" lengthAdjust="spacing" textLength="88" x="496.5" y="57.5332">Module (SDK)</text><rect fill="#E2E2F0" height="49.2188" rx="2.5" ry="2.5" style="stroke:#181818;stroke-width:0.5;" width="112" x="482.5" y="392.4766"/><text fill="#000000" font-family="sans-serif" font-size="14" lengthAdjust="spacing" textLength="94" x="489.5" y="414.0098">phiMail Sender</text><text fill="#000000" font-family="sans-serif" font-size="14" lengthAdjust="spacing" textLength="88" x="496.5" y="431.6191">Module (SDK)</text><rect fill="#E2E2F0" height="31.6094" rx="2.5" ry="2.5" style="stroke:#181818;stroke-width:0.5;" width="104" x="808.5" y="36"/><text fill="#000000" font-family="sans-serif" font-size="14" lengthAdjust="spacing" textLength="90" x="815.5" y="57.5332">phiMail Server</text><rect fill="#E2E2F0" height="31.6094" rx="2.5" ry="2.5" style="stroke:#181818;stroke-width:0.5;" width="104" x="808.5" y="392.4766"/><text fill="#000000" font-family="sans-serif" font-size="14" lengthAdjust="spacing" textLength="90" x="815.5" y="414.0098">phiMail Server</text><text fill="#000000" font-family="sans-serif" font-size="14" lengthAdjust="spacing" textLength="61" x="973" y="65.5332">Database</text><path d="M988.5,15 C988.5,5 1006.5,5 1006.5,5 C1006.5,5 1024.5,5 1024.5,15 L1024.5,41 C1024.5,51 1006.5,51 1006.5,51 C1006.5,51 988.5,51 988.5,41 L988.5,15 " fill="#E2E2F0" style="stroke:#181818;stroke-width:1.5;"/><path d="M988.5,15 C988.5,25 1006.5,25 1006.5,25 C1006.5,25 1024.5,25 1024.5,15 " fill="none" style="stroke:#181818;stroke-width:1.5;"/><text fill="#000000" font-family="sans-serif" font-size="14" lengthAdjust="spacing" textLength="61" x="973" y="407.0098">Database</text><path d="M988.5,420.0859 C988.5,410.0859 1006.5,410.0859 1006.5,410.0859 C1006.5,410.0859 1024.5,410.0859 1024.5,420.0859 L1024.5,446.0859 C1024.5,456.0859 1006.5,456.0859 1006.5,456.0859 C1006.5,456.0859 988.5,456.0859 988.5,446.0859 L988.5,420.0859 " fill="#E2E2F0" style="stroke:#181818;stroke-width:1.5;"/><path d="M988.5,420.0859 C988.5,430.0859 1006.5,430.0859 1006.5,430.0859 C1006.5,430.0859 1024.5,430.0859 1024.5,420.0859 " fill="none" style="stroke:#181818;stroke-width:1.5;"/><polygon fill="#181818" points="212.5,96.9609,222.5,100.9609,212.5,104.9609,216.5,100.9609" style="stroke:#181818;stroke-width:1.0;"/><line style="stroke:#181818;stroke-width:1.0;" x1="26.5" x2="218.5" y1="100.9609" y2="100.9609"/><text fill="#000000" font-family="sans-serif" font-size="13" font-weight="bold" lengthAdjust="spacing" textLength="7" x="33.5" y="96.1045">1</text><text fill="#000000" font-family="sans-serif" font-size="13" lengthAdjust="spacing" textLength="127" x="44.5" y="96.1045">Initiate message send</text><polygon fill="#181818" points="526.5,143.6641,536.5,147.6641,526.5,151.6641,530.5,147.6641" style="stroke:#181818;stroke-width:1.0;"/><line style="stroke:#181818;stroke-width:1.0;" x1="224.5" x2="532.5" y1="147.6641" y2="147.6641"/><text fill="#000000" font-family="sans-serif" font-size="13" font-weight="bold" lengthAdjust="spacing" textLength="7" x="231.5" y="134.6318">2</text><text fill="#000000" font-family="sans-serif" font-size="13" lengthAdjust="spacing" textLength="87" x="242.5" y="126.4561">Send message</text><text fill="#000000" font-family="sans-serif" font-size="13" lengthAdjust="spacing" textLength="275" x="246.5" y="142.8076">(subject, content, attachments(pdf/xml(CCDA)))</text><polygon fill="#181818" points="848.5,174.0156,858.5,178.0156,848.5,182.0156,852.5,178.0156" style="stroke:#181818;stroke-width:1.0;"/><line style="stroke:#181818;stroke-width:1.0;" x1="538.5" x2="854.5" y1="178.0156" y2="178.0156"/><text fill="#000000" font-family="sans-serif" font-size="13" font-weight="bold" lengthAdjust="spacing" textLength="7" x="545.5" y="173.1592">3</text><text fill="#000000" font-family="sans-serif" font-size="13" lengthAdjust="spacing" textLength="266" x="556.5" y="173.1592">Transmit encrypted message to phiMail server</text><line style="stroke:#181818;stroke-width:1.0;" x1="860.5" x2="902.5" y1="224.7188" y2="224.7188"/><line style="stroke:#181818;stroke-width:1.0;" x1="902.5" x2="902.5" y1="224.7188" y2="237.7188"/><line style="stroke:#181818;stroke-width:1.0;" x1="861.5" x2="902.5" y1="237.7188" y2="237.7188"/><polygon fill="#181818" points="871.5,233.7188,861.5,237.7188,871.5,241.7188,867.5,237.7188" style="stroke:#181818;stroke-width:1.0;"/><text fill="#000000" font-family="sans-serif" font-size="13" font-weight="bold" lengthAdjust="spacing" textLength="7" x="867.5" y="211.6865">4</text><text fill="#000000" font-family="sans-serif" font-size="13" lengthAdjust="spacing" textLength="117" x="878.5" y="203.5107">Queue the message</text><text fill="#000000" font-family="sans-serif" font-size="13" lengthAdjust="spacing" textLength="117" x="882.5" y="219.8623">in the phiMail Server</text><polygon fill="#181818" points="549.5,264.0703,539.5,268.0703,549.5,272.0703,545.5,268.0703" style="stroke:#181818;stroke-width:1.0;"/><line style="stroke:#181818;stroke-width:1.0;" x1="543.5" x2="859.5" y1="268.0703" y2="268.0703"/><text fill="#000000" font-family="sans-serif" font-size="13" font-weight="bold" lengthAdjust="spacing" textLength="7" x="555.5" y="263.2139">5</text><text fill="#000000" font-family="sans-serif" font-size="13" lengthAdjust="spacing" textLength="287" x="566.5" y="263.2139">Confirm message queued with unique message id</text><polygon fill="#181818" points="235.5,294.4219,225.5,298.4219,235.5,302.4219,231.5,298.4219" style="stroke:#181818;stroke-width:1.0;"/><line style="stroke:#181818;stroke-width:1.0;" x1="229.5" x2="537.5" y1="298.4219" y2="298.4219"/><text fill="#000000" font-family="sans-serif" font-size="13" font-weight="bold" lengthAdjust="spacing" textLength="7" x="241.5" y="293.5654">6</text><text fill="#000000" font-family="sans-serif" font-size="13" lengthAdjust="spacing" textLength="173" x="252.5" y="293.5654">Return the unique message id</text><polygon fill="#181818" points="994.5,341.125,1004.5,345.125,994.5,349.125,998.5,345.125" style="stroke:#181818;stroke-width:1.0;"/><line style="stroke:#181818;stroke-width:1.0;" x1="224.5" x2="1000.5" y1="345.125" y2="345.125"/><text fill="#000000" font-family="sans-serif" font-size="13" font-weight="bold" lengthAdjust="spacing" textLength="7" x="231.5" y="332.0928">7</text><text fill="#000000" font-family="sans-serif" font-size="13" lengthAdjust="spacing" textLength="189" x="242.5" y="323.917">Store the message id and status</text><text fill="#000000" font-family="sans-serif" font-size="13" lengthAdjust="spacing" textLength="107" x="246.5" y="340.2686">for future reference</text><polygon fill="#181818" points="37.5,371.4766,27.5,375.4766,37.5,379.4766,33.5,375.4766" style="stroke:#181818;stroke-width:1.0;"/><line style="stroke:#181818;stroke-width:1.0;" x1="31.5" x2="223.5" y1="375.4766" y2="375.4766"/><text fill="#000000" font-family="sans-serif" font-size="13" font-weight="bold" lengthAdjust="spacing" textLength="7" x="43.5" y="370.6201">8</text><text fill="#000000" font-family="sans-serif" font-size="13" lengthAdjust="spacing" textLength="163" x="54.5" y="370.6201">Notify message was queued</text><!--SRC=[TL7DJeH03Bxp5CsU85dZtOE92mSt1gCYDozTA4iDpE1CntNVtXb0N6AyTThlhnrqefNh3sIY0OrmnGCgWKrfoMm0BPJhVa6g9WDfnwHa11HhmD1oZjp137nJaElQTGHnaJqa8-FfVk_h_sZcStRsiBo8QXGye2NOP7Cr3hDT59LmTGi5tC1UiJ0AGK_Muf70UlEe2EF9osD2dcNkKyNM7TwfaYrKMebVPWieWbNR-zh6GzrSV_LTdARPNP8aqQmpAUR1zDMWiZqBaAhCUH3wbHSDF_lOSPze8bsmdnqv3spfCXEhiRE-nOexxP9grR3f5-f74AlXnDA2K-oVouZhY-Z1-8N4cSddBtIqoNRXNABDEX_NWFw4Lb2S3MaRRQ1nNet0K4F6tu4cXT8BF6hXvhomJ_xFffZV]--></g></svg>